<?xml version="1.0" encoding="UTF-8"?>
<svg id="Layer_1" xmlns="http://www.w3.org/2000/svg" viewBox="0 0 209.38 226.03" width="10" height="10">
  <defs>
    <style>
      .cls-1 {
        fill: #627e51;
      }
    </style>
  </defs>
  <path class="cls-1" d="M209.38,79.2c-1.39,16.54-1.24,33.39-4.49,49.56-6.39,31.76-24.74,55.98-52.35,72.84-12.77,7.8-26.07,14.72-39.19,21.94-6.15,3.38-12.44,3.32-18.6-.09-12.66-7.01-25.56-13.64-37.88-21.21C20.11,179.65,1.17,146.54.2,103.41c-.4-17.98-.09-35.98-.06-53.98.02-11.2,5.81-18.49,16.9-19.86,28-3.46,54.02-12.31,78.12-26.99,6.19-3.77,12.81-3.24,18.97.52,21.29,12.97,44.22,21.44,68.87,25.23,3.12.48,6.27.82,9.38,1.37,9.42,1.65,15.6,8.8,15.71,18.41.12,10.33.03,20.66.03,30.99.42.03.84.07,1.26.1ZM193.34,80.26c-.4-.03-.8-.07-1.2-.1,0-9.83-.15-19.65.07-29.47.09-3.82-1.32-5.35-5.03-5.76-28.35-3.15-54.71-12.27-79.15-26.92-2.76-1.66-4.86-1.76-7.7-.05-24.42,14.67-50.79,23.81-79.13,26.98-4.06.45-5.18,2.24-5.14,6.16.18,17.82-.22,35.64.15,53.45.63,30.11,11.84,55.99,35.74,74.31,15.44,11.84,33.38,20.44,50.32,30.29,1.18.69,3.6.18,5-.58,12.13-6.59,24.33-13.07,36.17-20.15,23.85-14.26,39.98-34.85,45.58-62.11,3.08-15.01,2.98-30.67,4.31-46.04Z"/>
  <path class="cls-1" d="M98.28,117.63c9.85-10.47,19.41-20.63,28.96-30.8,1.71-1.82,3.34-3.72,5.11-5.49,4-4,8.38-4.35,11.92-1.05,3.57,3.33,3.63,7.79-.2,11.95-7.67,8.34-15.49,16.53-23.25,24.79-5.02,5.34-9.99,10.73-15.05,16.03-4.72,4.93-8.33,5.13-13.37.72-7.4-6.47-14.75-12.99-22.06-19.57-4.03-3.62-4.55-8.41-1.5-11.88,3.11-3.54,7.92-3.71,11.99-.19,5.77,4.99,11.42,10.12,17.45,15.47Z"/>
</svg>