<?xml version="1.0" encoding="UTF-8"?>
<svg id="Layer_1" xmlns="http://www.w3.org/2000/svg" version="1.1" xmlns:serif="http://www.serif.com/" viewBox="0 0 456 456">
  <!-- Generator: Adobe Illustrator 29.7.1, SVG Export Plug-In . SVG Version: 2.1.1 Build 8)  -->
  <defs>
    <style>
      .st0 {
        fill: #7e9fd3;
      }

      .st1 {
        fill: #5cbd73;
      }

      .st2 {
        fill: #fad659;
      }

      .st3 {
        fill: #92ce98;
      }

      .st4 {
        fill: #f04e5f;
      }

      .st5 {
        fill: #f6f5f4;
      }

      .st6 {
        fill: #f9b12d;
      }
    </style>
  </defs>
  <path class="st5" d="M90.94,88.65C52.58,126.79,28.31,179.58,25.55,234.12c-.45,8.84-1.33,18.23,8.5,21.81,71.82.55,144.08,1.15,215.81-.31,3.15-1.03,3.04-2.62,4.05-3.99,1.23-1.67,3.35-2.46,2.84-5.69,2.25-68.38.23-137.53,1.01-206.22.53-1.31-.9-2.64-1.01-3.21-2.64-12.74-11.07-11.85-22.31-11.41-53.08,2.07-106.22,26.46-143.52,63.54l.02.02Z"/>
  <path class="st5" d="M340.16,256.37c-2.15,18.65-13.49,42.44-26.54,55.9-13.64,14.08-37.27,25-56.85,27.48-32.36,4.1-64.31-9.08-85.26-33.67-4.71-5.52-11.59-19.83-17.78-21.08l-75.55-.17c-12.13,4.1-9.32,12.72-6.22,22.24,24.87,76.58,105.68,126.35,184.79,120.8,46.67-3.27,86.48-20.83,119.4-54.01,30.61-30.84,50.32-73.8,53.06-117.51,4.69-74.55-37.77-146.15-104.85-178.01-8.44-4.01-36.55-17.9-39.14-1.5l.14,77.45c1.2,5.27,13.07,10.98,17.71,14.52,26.71,20.36,40.92,54.05,37.05,87.56l.03.02Z"/>
  <path class="st3" d="M253.93,251.65c-1.01,1.37-.92,2.95-4.05,3.99-71.74,1.45-143.99.84-215.81.31-9.82-3.59-8.93-12.97-8.5-21.81,2.74-54.53,27.02-107.33,65.38-145.47l162.98,162.98Z"/>
  <path class="st1" d="M256.77,36.54v209.42c.51,3.23-1.61,4.02-2.84,5.69L90.95,88.67c37.3-37.08,90.44-61.45,143.52-63.54,11.24-.44,19.68-1.31,22.31,11.41h-.02Z"/>
  <path class="st4" d="M429.23,256.37h-89.07c3.85-33.51-10.34-67.19-37.05-87.56-4.63-3.54-16.51-9.23-17.71-14.52l-.14-77.45c2.59-16.4,30.7-2.51,39.14,1.5,67.07,31.87,109.54,103.46,104.85,178.01l-.02.02Z"/>
  <path class="st0" d="M256.77,339.76v88.13c-79.12,5.55-159.94-44.22-184.79-120.8-3.09-9.51-5.89-18.13,6.22-22.24l75.55.17c6.19,1.25,13.07,15.55,17.78,21.08,20.96,24.59,52.91,37.77,85.26,33.67l-.02-.02Z"/>
  <path class="st6" d="M429.23,256.37c-2.74,43.71-22.45,86.65-53.06,117.51-2.17.37-2.88-.72-4.3-1.86-16.42-13.25-41.09-39.83-55.89-55.93-1.08-1.17-2.37-1.95-2.35-3.8,13.05-13.46,24.39-37.25,26.54-55.9h89.07v-.02Z"/>
  <path class="st2" d="M313.62,312.29c-.02,1.86,1.28,2.64,2.35,3.8,14.8,16.11,39.48,42.68,55.89,55.93,1.4,1.14,2.14,2.23,4.3,1.86-32.92,33.18-72.73,50.74-119.4,54.01v-88.13c19.59-2.48,43.21-13.39,56.85-27.48Z"/>
  <path class="st3" d="M256.77,245.96V36.54c.11.56,1.54,1.89,1.01,3.21-.78,68.67,1.23,137.83-1.01,206.22v-.02Z"/>
</svg>