<?xml version="1.0" encoding="UTF-8"?>
<svg id="Layer_1" xmlns="http://www.w3.org/2000/svg" version="1.1" viewBox="0 0 419 519">
  <!-- Generator: Adobe Illustrator 29.7.1, SVG Export Plug-In . SVG Version: 2.1.1 Build 8)  -->
  <defs>
    <style>
      .st0 {
        fill: #fad659;
      }

      .st1 {
        fill: #5cbd73;
      }

      .st2 {
        fill: #f9b12d;
      }

      .st3 {
        fill: #f04e5f;
      }

      .st4 {
        fill: #f6f5f4;
      }

      .st5 {
        fill: #7e9fd3;
      }

      .st6 {
        fill: #92ce98;
      }
    </style>
  </defs>
  <path class="st4" d="M121.95,160.3c-24.6,24.46-40.16,58.31-41.93,93.29-.29,5.67-.85,11.69,5.45,13.99,46.06.35,92.4.74,138.4-.2,2.02-.66,1.95-1.68,2.6-2.56.79-1.07,2.15-1.58,1.82-3.65,1.44-43.85.15-88.2.65-132.25.34-.84-.58-1.69-.65-2.06-1.69-8.17-7.1-7.6-14.31-7.32-34.04,1.33-68.12,16.97-92.04,40.75Z"/>
  <path class="st4" d="M281.78,267.86c-1.38,11.96-8.65,27.22-17.02,35.85-8.75,9.03-23.9,16.03-36.46,17.62-20.75,2.63-41.24-5.82-54.68-21.59-3.02-3.54-7.43-12.72-11.4-13.52l-48.45-.11c-7.78,2.63-5.98,8.16-3.99,14.26,15.95,49.11,67.77,81.03,118.51,77.47,29.93-2.1,55.46-13.36,76.57-34.64,19.63-19.78,32.27-47.33,34.03-75.36,3.01-47.81-24.22-93.73-67.24-114.16-5.41-2.57-23.44-11.48-25.1-.96l.09,49.67c.77,3.38,8.38,7.04,11.36,9.31,17.13,13.06,26.24,34.66,23.76,56.15Z"/>
  <path class="st6" d="M226.48,264.83c-.65.88-.59,1.89-2.6,2.56-46.01.93-92.34.54-138.4.2-6.3-2.3-5.73-8.32-5.45-13.99,1.76-34.97,17.33-68.83,41.93-93.29l104.52,104.52Z"/>
  <path class="st1" d="M228.3,126.88v134.3c.33,2.07-1.03,2.58-1.82,3.65l-104.52-104.52c23.92-23.78,58-39.41,92.04-40.75,7.21-.28,12.62-.84,14.31,7.32Z"/>
  <path class="st3" d="M338.9,267.86h-57.12c2.47-21.49-6.63-43.09-23.76-56.15-2.97-2.27-10.59-5.92-11.36-9.31l-.09-49.67c1.66-10.52,19.69-1.61,25.1.96,43.01,20.44,70.25,66.35,67.24,114.16Z"/>
  <path class="st5" d="M228.3,321.34v56.52c-50.74,3.56-102.57-28.36-118.51-77.47-1.98-6.1-3.78-11.63,3.99-14.26l48.45.11c3.97.8,8.38,9.97,11.4,13.52,13.44,15.77,33.93,24.22,54.68,21.59Z"/>
  <path class="st2" d="M338.9,267.86c-1.76,28.03-14.4,55.57-34.03,75.36-1.39.24-1.85-.46-2.76-1.19-10.53-8.5-26.35-25.54-35.84-35.87-.69-.75-1.52-1.25-1.51-2.44,8.37-8.63,15.64-23.89,17.02-35.85h57.12Z"/>
  <path class="st0" d="M264.76,303.72c-.01,1.19.82,1.69,1.51,2.44,9.49,10.33,25.32,27.37,35.84,35.87.9.73,1.37,1.43,2.76,1.19-21.11,21.28-46.64,32.54-76.57,34.64v-56.52c12.56-1.59,27.71-8.59,36.46-17.62Z"/>
  <path class="st6" d="M228.3,261.18V126.88c.07.36.99,1.21.65,2.06-.5,44.04.79,88.39-.65,132.25Z"/>
</svg>